<?xml version="1.0" standalone="no"?>
<!DOCTYPE svg PUBLIC "-//W3C//DTD SVG 20010904//EN"
 "http://www.w3.org/TR/2001/REC-SVG-20010904/DTD/svg10.dtd">
<svg version="1.0" xmlns="http://www.w3.org/2000/svg"
 width="682.000000pt" height="682.000000pt" viewBox="0 0 682.000000 682.000000"
 preserveAspectRatio="xMidYMid meet">
<metadata>
Created by potrace 1.14, written by Peter Selinger 2001-2017
</metadata>
<g transform="translate(0.000000,682.000000) scale(0.100000,-0.100000)"
fill="#000000" stroke="none">
<path d="M2841 6680 c-34 -5 -35 -8 -87 -135 -30 -71 -58 -139 -63 -150 -5
-11 -156 -378 -336 -815 -179 -437 -330 -804 -335 -815 -5 -11 -27 -63 -48
-115 -21 -52 -165 -401 -320 -775 -154 -374 -377 -916 -496 -1205 -119 -289
-221 -534 -226 -545 -5 -11 -99 -240 -210 -510 -110 -269 -205 -499 -210 -510
-5 -11 -80 -191 -166 -400 -85 -209 -164 -398 -175 -422 -10 -23 -19 -48 -20
-55 0 -7 -4 -4 -9 7 -6 14 -9 -5 -9 -57 l-1 -77 764 3 c421 2 769 7 775 11 14
8 20 22 148 355 58 151 132 345 165 430 101 262 130 339 328 855 105 275 208
545 230 600 22 55 103 267 180 470 125 327 225 585 390 1015 26 69 74 193 106
275 31 83 65 169 74 193 24 62 37 71 50 36 15 -39 204 -539 385 -1019 162
-428 163 -430 423 -1120 99 -264 289 -768 422 -1120 133 -352 269 -713 303
-802 46 -123 66 -165 81 -170 21 -7 1566 -11 1619 -4 15 2 27 9 27 17 0 25
-285 745 -1602 4039 -550 1375 -1003 2504 -1008 2509 -9 9 -1090 15 -1149 6z"/>
<path d="M3326 1579 c-9 -13 -16 -27 -16 -31 0 -7 -188 -499 -490 -1283 -54
-141 -54 -148 -5 -156 44 -7 970 -9 1048 -1 34 3 47 8 47 20 0 14 -165 458
-450 1207 -50 132 -97 246 -104 253 -11 12 -16 10 -30 -9z"/>
</g>
</svg>
